0
SECTION
2
HEADER
9
$INSUNITS
70
4
9
$ACADVER
1
AC1014
9
$HANDSEED
5
FFFF
0
ENDSEC
0
SECTION
2
TABLES
0
TABLE
2
VPORT
5
8
100
AcDbSymbolTable
0
ENDTAB
0
TABLE
2
LTYPE
5
5
100
AcDbSymbolTable
0
LTYPE
5
14
100
AcDbSymbolTableRecord
100
AcDbLinetypeTableRecord
2
BYBLOCK
70
0
0
LTYPE
5
15
100
AcDbSymbolTableRecord
100
AcDbLinetypeTableRecord
2
BYLAYER
70
0
0
ENDTAB
0
TABLE
2
LAYER
5
2
100
AcDbSymbolTable
70
2
0
LAYER
5
50
100
AcDbSymbolTableRecord
100
AcDbLayerTableRecord
2
0
70
0
6
CONTINUOUS
0
ENDTAB
0
TABLE
2
STYLE
5
3
100
AcDbSymbolTable
70
1
0
STYLE
5
11
100
AcDbSymbolTableRecord
100
AcDbTextStyleTableRecord
2
STANDARD
70
0
0
ENDTAB
0
TABLE
2
VIEW
5
6
100
AcDbSymbolTable
70
0
0
ENDTAB
0
TABLE
2
UCS
5
7
100
AcDbSymbolTable
70
0
0
ENDTAB
0
TABLE
2
APPID
5
9
100
AcDbSymbolTable
70
2
0
APPID
5
12
100
AcDbSymbolTableRecord
100
AcDbRegAppTableRecord
2
ACAD
70
0
0
ENDTAB
0
TABLE
2
DIMSTYLE
5
A
100
AcDbSymbolTable
70
1
0
ENDTAB
0
TABLE
2
BLOCK_RECORD
5
1
100
AcDbSymbolTable
70
1
0
BLOCK_RECORD
5
1F
100
AcDbSymbolTableRecord
100
AcDbBlockTableRecord
2
*MODEL_SPACE
0
BLOCK_RECORD
5
1B
100
AcDbSymbolTableRecord
100
AcDbBlockTableRecord
2
*PAPER_SPACE
0
ENDTAB
0
ENDSEC
0
SECTION
2
BLOCKS
0
BLOCK
5
20
100
AcDbEntity
100
AcDbBlockBegin
2
*MODEL_SPACE
0
ENDBLK
5
21
100
AcDbEntity
100
AcDbBlockEnd
0
BLOCK
5
1C
100
AcDbEntity
100
AcDbBlockBegin
2
*PAPER_SPACE
0
ENDBLK
5
1D
100
AcDbEntity
100
AcDbBlockEnd
0
ENDSEC
0
SECTION
2
ENTITIES
0
SPLINE
5
100
100
AcDbEntity
8
0
100
AcDbSpline
70
0
71
2
72
6
73
3
74
0
42
0.000000001
43
0.0000000001
44
0.0000000001
40
0
40
0
40
0
40
1
40
1
40
1
10
-86.922536476201216
20
48.691258173629521
30
0
10
-87.161876245087782
20
48.554050665542348
30
0
10
-87.475493832177321
20
48.554050665542348
30
0
0
SPLINE
5
101
100
AcDbEntity
8
0
100
AcDbSpline
70
0
71
2
72
6
73
3
74
0
42
0.000000001
43
0.0000000001
44
0.0000000001
40
0
40
0
40
0
40
1
40
1
40
1
10
-87.475493832177321
20
48.554050665542348
30
0
10
-87.78911141926686
20
48.554050665542348
30
0
10
-88.02845148617665
20
48.691258173629507
30
0
0
SPLINE
5
102
100
AcDbEntity
8
0
100
AcDbSpline
70
0
71
2
72
6
73
3
74
0
42
0.000000001
43
0.0000000001
44
0.0000000001
40
0
40
0
40
0
40
1
40
1
40
1
10
-88.02845148617665
20
48.691258173629507
30
0
10
-88.267790957039992
20
48.828465979739889
30
0
10
-88.398809118813674
20
49.079153876945234
30
0
0
SPLINE
5
103
100
AcDbEntity
8
0
100
AcDbSpline
70
0
71
2
72
6
73
3
74
0
42
0.000000001
43
0.0000000001
44
0.0000000001
40
0
40
0
40
0
40
1
40
1
40
1
10
-88.398809118813674
20
49.079153876945234
30
0
10
-88.529826684540907
20
49.329841625138975
30
0
10
-88.529826684540907
20
49.659965377494551
30
0
0
LINE
5
104
100
AcDbEntity
8
0
100
AcDbLine
10
-88.529826684540907
20
49.659965377494558
30
0
11
-88.529826684540907
21
50.510034304305769
31
0
0
SPLINE
5
105
100
AcDbEntity
8
0
100
AcDbSpline
70
0
71
2
72
6
73
3
74
0
42
0.000000001
43
0.0000000001
44
0.0000000001
40
0
40
0
40
0
40
1
40
1
40
1
10
-88.529826684540907
20
50.510034304305769
30
0
10
-88.529826684540907
20
50.840157907649733
30
0
10
-88.398809118813674
20
51.090845804855093
30
0
0
SPLINE
5
106
100
AcDbEntity
8
0
100
AcDbSpline
70
0
71
2
72
6
73
3
74
0
42
0.000000001
43
0.0000000001
44
0.0000000001
40
0
40
0
40
0
40
1
40
1
40
1
10
-88.398809118813674
20
51.090845804855093
30
0
10
-88.267790957039992
20
51.341533702060445
30
0
10
-88.02845148617665
20
51.478741210147604
30
0
0
SPLINE
5
107
100
AcDbEntity
8
0
100
AcDbSpline
70
0
71
2
72
6
73
3
74
0
42
0.000000001
43
0.0000000001
44
0.0000000001
40
0
40
0
40
0
40
1
40
1
40
1
10
-88.02845148617665
20
51.478741210147604
30
0
10
-87.78911141926686
20
51.615949016257986
30
0
10
-87.475493832177321
20
51.615949016257986
30
0
0
SPLINE
5
108
100
AcDbEntity
8
0
100
AcDbSpline
70
0
71
2
72
6
73
3
74
0
42
0.000000001
43
0.0000000001
44
0.0000000001
40
0
40
0
40
0
40
1
40
1
40
1
10
-87.475493832177321
20
51.615949016257986
30
0
10
-87.161876245087782
20
51.615949016257986
30
0
10
-86.922536476201216
20
51.478741210147618
30
0
0
SPLINE
5
109
100
AcDbEntity
8
0
100
AcDbSpline
70
0
71
2
72
6
73
3
74
0
42
0.000000001
43
0.0000000001
44
0.0000000001
40
0
40
0
40
0
40
1
40
1
40
1
10
-86.922536476201216
20
51.478741210147618
30
0
10
-86.68319670731465
20
51.34153370206046
30
0
10
-86.552178843564192
20
51.090845804855107
30
0
0
SPLINE
5
110
100
AcDbEntity
8
0
100
AcDbSpline
70
0
71
2
72
6
73
3
74
0
42
0.000000001
43
0.0000000001
44
0.0000000001
40
0
40
0
40
0
40
1
40
1
40
1
10
-86.552178843564192
20
51.090845804855107
30
0
10
-86.421160979813735
20
50.840157907649754
30
0
10
-86.421160979813735
20
50.51003430430579
30
0
0
LINE
5
111
100
AcDbEntity
8
0
100
AcDbLine
10
-86.421160979813735
20
50.51003430430579
30
0
11
-86.421160979813735
21
49.659965377494572
31
0
0
SPLINE
5
112
100
AcDbEntity
8
0
100
AcDbSpline
70
0
71
2
72
6
73
3
74
0
42
0.000000001
43
0.0000000001
44
0.0000000001
40
0
40
0
40
0
40
1
40
1
40
1
10
-86.421160979813735
20
49.659965377494572
30
0
10
-86.421160979813735
20
49.329841625138997
30
0
10
-86.552178843564192
20
49.079153876945256
30
0
0
SPLINE
5
113
100
AcDbEntity
8
0
100
AcDbSpline
70
0
71
2
72
6
73
3
74
0
42
0.000000001
43
0.0000000001
44
0.0000000001
40
0
40
0
40
0
40
1
40
1
40
1
10
-86.552178843564192
20
49.079153876945256
30
0
10
-86.68319670731465
20
48.828465979739903
30
0
10
-86.922536476201216
20
48.691258173629521
30
0
0
SPLINE
5
114
100
AcDbEntity
8
0
100
AcDbSpline
70
0
71
2
72
6
73
3
74
0
42
0.000000001
43
0.0000000001
44
0.0000000001
40
0
40
0
40
0
40
1
40
1
40
1
10
-87.379443247692393
20
88.739726100287001
30
0
10
-87.544505198375987
20
88.91923085244612
30
0
10
-87.845743198768901
20
88.91923085244612
30
0
0
SPLINE
5
115
100
AcDbEntity
8
0
100
AcDbSpline
70
0
71
2
72
6
73
3
74
0
42
0.000000001
43
0.0000000001
44
0.0000000001
40
0
40
0
40
0
40
1
40
1
40
1
10
-87.845743198768901
20
88.91923085244612
30
0
10
-88.149044413940715
20
88.91923085244612
30
0
10
-88.315137823002132
20
88.739726100287001
30
0
0
SPLINE
5
116
100
AcDbEntity
8
0
100
AcDbSpline
70
0
71
2
72
6
73
3
74
0
42
0.000000001
43
0.0000000001
44
0.0000000001
40
0
40
0
40
0
40
1
40
1
40
1
10
-88.315137823002132
20
88.739726100287001
30
0
10
-88.481231530086788
20
88.560221348127882
30
0
10
-88.481231530086788
20
88.232160661539595
30
0
0
LINE
5
117
100
AcDbEntity
8
0
100
AcDbLine
10
-88.481231530086788
20
88.232160661539595
30
0
11
-88.481231530086774
21
86.302999708971541
31
0
0
LINE
5
118
100
AcDbEntity
8
0
100
AcDbLine
10
-88.481231530086774
20
86.302999708971541
30
0
11
-88.902139265911359
21
86.302999708971541
31
0
0
LINE
5
119
100
AcDbEntity
8
0
100
AcDbLine
10
-88.902139265911359
20
86.302999708971541
30
0
11
-88.902139265911373
21
88.217717860064084
31
0
0
SPLINE
5
120
100
AcDbEntity
8
0
100
AcDbSpline
70
0
71
2
72
6
73
3
74
0
42
0.000000001
43
0.0000000001
44
0.0000000001
40
0
40
0
40
0
40
1
40
1
40
1
10
-88.902139265911373
20
88.217717860064084
30
0
10
-88.902139265911373
20
88.570537720045621
30
0
10
-88.778342802898692
20
88.821225319227736
30
0
0
SPLINE
5
121
100
AcDbEntity
8
0
100
AcDbSpline
70
0
71
2
72
6
73
3
74
0
42
0.000000001
43
0.0000000001
44
0.0000000001
40
0
40
0
40
0
40
1
40
1
40
1
10
-88.778342802898692
20
88.821225319227736
30
0
10
-88.65454663790922
20
89.071913216433089
30
0
10
-88.417270083801554
20
89.202931080183546
30
0
0
SPLINE
5
122
100
AcDbEntity
8
0
100
AcDbSpline
70
0
71
2
72
6
73
3
74
0
42
0.000000001
43
0.0000000001
44
0.0000000001
40
0
40
0
40
0
40
1
40
1
40
1
10
-88.417270083801554
20
89.202931080183546
30
0
10
-88.179993529693888
20
89.333948943934004
30
0
10
-87.845743198768901
20
89.333948943934004
30
0
0
SPLINE
5
123
100
AcDbEntity
8
0
100
AcDbSpline
70
0
71
2
72
6
73
3
74
0
42
0.000000001
43
0.0000000001
44
0.0000000001
40
0
40
0
40
0
40
1
40
1
40
1
10
-87.845743198768901
20
89.333948943934004
30
0
10
-87.513556082622813
20
89.333948943934004
30
0
10
-87.277311210410403
20
89.202931080183546
30
0
0
SPLINE
5
124
100
AcDbEntity
8
0
100
AcDbSpline
70
0
71
2
72
6
73
3
74
0
42
0.000000001
43
0.0000000001
44
0.0000000001
40
0
40
0
40
0
40
1
40
1
40
1
10
-87.277311210410403
20
89.202931080183546
30
0
10
-87.041066338197993
20
89.071913216433089
30
0
10
-86.917269912438201
20
88.821225319227736
30
0
0
SPLINE
5
125
100
AcDbEntity
8
0
100
AcDbSpline
70
0
71
2
72
6
73
3
74
0
42
0.000000001
43
0.0000000001
44
0.0000000001
40
0
40
0
40
0
40
1
40
1
40
1
10
-86.917269912438201
20
88.821225319227736
30
0
10
-86.793473486678394
20
88.570537720045607
30
0
10
-86.793473486678394
20
88.21771786006407
30
0
0
LINE
5
126
100
AcDbEntity
8
0
100
AcDbLine
10
-86.793473486678394
20
88.21771786006407
30
0
11
-86.79347348667838
21
86.302999708971541
31
0
0
LINE
5
127
100
AcDbEntity
8
0
100
AcDbLine
10
-86.79347348667838
20
86.302999708971541
30
0
11
-87.214381371514577
21
86.302999708971541
31
0
0
LINE
5
128
100
AcDbEntity
8
0
100
AcDbLine
10
-87.214381371514577
20
86.302999708971541
30
0
11
-87.214381371514591
21
88.232160661539595
31
0
0
SPLINE
5
129
100
AcDbEntity
8
0
100
AcDbSpline
70
0
71
2
72
6
73
3
74
0
42
0.000000001
43
0.0000000001
44
0.0000000001
40
0
40
0
40
0
40
1
40
1
40
1
10
-87.214381371514591
20
88.232160661539595
30
0
10
-87.214381371514591
20
88.560221348127882
30
0
10
-87.379443247692393
20
88.739726100287001
30
0
0
LWPOLYLINE
5
130
100
AcDbEntity
8
0
100
AcDbPolyline
90
13
70
1
43
0.0
10
-91.193513556069533
20
51.584999900504791
10
-90.640555902070204
20
49.488713633462631
10
-90.062839074677626
20
51.584999900504798
10
-89.633678479737441
20
51.584999900504798
10
-88.901216073578993
20
48.584999781295515
10
-89.338630123681227
20
48.584999781295515
10
-89.868891521042983
20
50.937131982490278
10
-90.483747406548659
20
48.584999781295508
10
-90.772605820244948
20
48.584999781295508
10
-91.387461109704176
20
50.937131982490271
10
-91.917722507065932
20
48.584999781295501
10
-92.355136557168166
20
48.584999781295501
10
-91.622674151009718
20
51.584999900504791
0
LINE
5
131
100
AcDbEntity
8
0
100
AcDbLine
10
-85.80217881376187
20
49.659965377494579
30
0
11
-85.80217881376187
21
50.510034304305798
31
0
0
SPLINE
5
132
100
AcDbEntity
8
0
100
AcDbSpline
70
0
71
2
72
6
73
3
74
0
42
0.000000001
43
0.0000000001
44
0.0000000001
40
0
40
0
40
0
40
1
40
1
40
1
10
-85.80217881376187
20
50.510034304305798
30
0
10
-85.80217881376187
20
50.850474279567486
30
0
10
-85.66806597883145
20
51.091877561256176
30
0
0
SPLINE
5
133
100
AcDbEntity
8
0
100
AcDbSpline
70
0
71
2
72
6
73
3
74
0
42
0.000000001
43
0.0000000001
44
0.0000000001
40
0
40
0
40
0
40
1
40
1
40
1
10
-85.66806597883145
20
51.091877561256176
30
0
10
-85.53395314390103
20
51.333280544921642
30
0
10
-85.277075602358977
20
51.459140222713238
30
0
0
SPLINE
5
134
100
AcDbEntity
8
0
100
AcDbSpline
70
0
71
2
72
6
73
3
74
0
42
0.000000001
43
0.0000000001
44
0.0000000001
40
0
40
0
40
0
40
1
40
1
40
1
10
-85.277075602358977
20
51.459140222713238
30
0
10
-85.020197911805312
20
51.584999900504833
30
0
10
-84.659125192708174
20
51.584999900504833
30
0
0
LINE
5
135
100
AcDbEntity
8
0
100
AcDbLine
10
-84.65912519270816
20
51.584999900504833
30
0
11
-83.710019274300734
21
51.58499990050484
31
0
0
LINE
5
136
100
AcDbEntity
8
0
100
AcDbLine
10
-83.710019274300734
20
51.58499990050484
30
0
11
-83.710019274300734
21
48.584999781295551
31
0
0
LINE
5
137
100
AcDbEntity
8
0
100
AcDbLine
10
-83.710019274300734
20
48.584999781295551
30
0
11
-84.661188407487074
21
48.584999781295544
31
0
0
SPLINE
5
138
100
AcDbEntity
8
0
100
AcDbSpline
70
0
71
2
72
6
73
3
74
0
42
0.000000001
43
0.0000000001
44
0.0000000001
40
0
40
0
40
0
40
1
40
1
40
1
10
-84.661188407487074
20
48.584999781295544
30
0
10
-85.022261424607436
20
48.584999781295544
30
0
10
-85.278107209748427
20
48.710859459087139
30
0
0
SPLINE
5
139
100
AcDbEntity
8
0
100
AcDbSpline
70
0
71
2
72
6
73
3
74
0
42
0.000000001
43
0.0000000001
44
0.0000000001
40
0
40
0
40
0
40
1
40
1
40
1
10
-85.278107209748427
20
48.710859459087139
30
0
10
-85.53395314390103
20
48.836719136878735
30
0
10
-85.66806597883145
20
49.078122120544201
30
0
0
SPLINE
5
140
100
AcDbEntity
8
0
100
AcDbSpline
70
0
71
2
72
6
73
3
74
0
42
0.000000001
43
0.0000000001
44
0.0000000001
40
0
40
0
40
0
40
1
40
1
40
1
10
-85.66806597883145
20
49.078122120544201
30
0
10
-85.80217881376187
20
49.319525253221279
30
0
10
-85.80217881376187
20
49.659965377494579
30
0
0
SPLINE
5
141
100
AcDbEntity
8
0
100
AcDbSpline
70
0
71
2
72
6
73
3
74
0
42
0.000000001
43
0.0000000001
44
0.0000000001
40
0
40
0
40
0
40
1
40
1
40
1
10
-91.554478009121212
20
87.704994235357816
30
0
10
-91.442029674427303
20
87.912353281101758
30
0
10
-91.237765450851711
20
88.025833372196729
30
0
0
SPLINE
5
142
100
AcDbEntity
8
0
100
AcDbSpline
70
0
71
2
72
6
73
3
74
0
42
0.000000001
43
0.0000000001
44
0.0000000001
40
0
40
0
40
0
40
1
40
1
40
1
10
-91.237765450851711
20
88.025833372196729
30
0
10
-91.033501227276119
20
88.139313314280088
30
0
10
-90.765275557415279
20
88.139313314280088
30
0
0
LINE
5
143
100
AcDbEntity
8
0
100
AcDbLine
10
-90.765275557415293
20
88.139313314280088
30
0
11
-90.024560292141231
21
88.139313314280088
31
0
0
LINE
5
144
100
AcDbEntity
8
0
100
AcDbLine
10
-90.024560292141231
20
88.139313314280088
30
0
11
-90.024560292141231
21
89.302999828180845
31
0
0
LINE
5
145
100
AcDbEntity
8
0
100
AcDbLine
10
-90.024560292141231
20
89.302999828180845
30
0
11
-89.603652556316661
21
89.302999828180845
31
0
0
LINE
5
146
100
AcDbEntity
8
0
100
AcDbLine
10
-89.603652556316661
20
89.302999828180845
30
0
11
-89.603652556316632
21
86.302999708971555
31
0
0
LINE
5
147
100
AcDbEntity
8
0
100
AcDbLine
10
-89.603652556316632
20
86.302999708971555
30
0
11
-90.765275557415265
21
86.302999708971555
31
0
0
SPLINE
5
148
100
AcDbEntity
8
0
100
AcDbSpline
70
0
71
2
72
6
73
3
74
0
42
0.000000001
43
0.0000000001
44
0.0000000001
40
0
40
0
40
0
40
1
40
1
40
1
10
-90.765275557415265
20
86.302999708971555
30
0
10
-91.033501227276105
20
86.302999708971555
30
0
10
-91.237765450851697
20
86.417511258444364
30
0
0
SPLINE
5
149
100
AcDbEntity
8
0
100
AcDbSpline
70
0
71
2
72
6
73
3
74
0
42
0.000000001
43
0.0000000001
44
0.0000000001
40
0
40
0
40
0
40
1
40
1
40
1
10
-91.237765450851697
20
86.417511258444364
30
0
10
-91.442029674427289
20
86.532023105940397
30
0
10
-91.554478009121212
20
86.740413759073789
30
0
0
SPLINE
5
150
100
AcDbEntity
8
0
100
AcDbSpline
70
0
71
2
72
6
73
3
74
0
42
0.000000001
43
0.0000000001
44
0.0000000001
40
0
40
0
40
0
40
1
40
1
40
1
10
-91.554478009121212
20
86.740413759073789
30
0
10
-91.666926343815121
20
86.948804412207181
30
0
10
-91.666926343815121
20
87.223219726404722
30
0
0
SPLINE
5
151
100
AcDbEntity
8
0
100
AcDbSpline
70
0
71
2
72
6
73
3
74
0
42
0.000000001
43
0.0000000001
44
0.0000000001
40
0
40
0
40
0
40
1
40
1
40
1
10
-91.666926343815121
20
87.223219726404722
30
0
10
-91.666926343815121
20
87.497635189613874
30
0
10
-91.554478009121212
20
87.704994235357816
30
0
0
LWPOLYLINE
5
152
100
AcDbEntity
8
0
100
AcDbPolyline
90
10
70
1
43
0.0
10
-94.587598724908034
20
50.825837450697115
10
-94.587598724908034
20
48.584999781295473
10
-95.004380627221266
20
48.584999781295473
10
-95.004380627221266
20
51.582936685725862
10
-94.618547840661208
20
51.582936685725862
10
-93.205205483979384
20
49.376208204127956
10
-93.205205483979384
20
51.582936685725883
10
-92.788424177712599
20
51.582936685725883
10
-92.788424177712599
20
48.584999781295494
10
-93.17012993866841
20
48.584999781295494
0
LWPOLYLINE
5
153
100
AcDbEntity
8
0
100
AcDbPolyline
90
4
70
1
43
0.0
10
-66.837199999999967
20
82.515000000000001
10
-66.837199999999967
20
73.915000000000006
10
-77.587199999999982
20
73.914999999999992
10
-77.587199999999982
20
82.514999999999986
0
LWPOLYLINE
5
154
100
AcDbEntity
8
0
100
AcDbPolyline
90
4
70
1
43
0.0
10
-66.837200000000024
20
63.464999999999989
10
-66.83720000000001
20
54.864999999999988
10
-77.587199999999996
20
54.864999999999995
10
-77.587199999999996
20
63.464999999999996
0
LWPOLYLINE
5
155
100
AcDbEntity
8
0
100
AcDbPolyline
90
8
70
1
43
0.0
10
-86.182199999999995
20
54.085000000000001
10
-92.532200000000003
20
54.084999999999994
42
-0.41421356237309503
10
-93.802200000000013
20
55.354999999999997
10
-93.80219999999953
20
82.533000000000015
42
-0.41420433756518005
10
-92.532200000000003
20
83.802999999999514
10
-85.928200000000018
20
83.803000000000026
42
-0.41421356237310325
10
-84.658200000000008
20
82.533000000000015
10
-84.658200000000008
20
55.609000000000002
42
-0.41422509387619189
0
LWPOLYLINE
5
156
100
AcDbEntity
8
0
100
AcDbPolyline
90
4
70
1
43
0.0
10
-59.24219999999999
20
105.33000000000001
10
-96.5822
20
105.33000000000001
10
-96.5822
20
38.180000000000007
10
-59.242199999999997
20
38.180000000000007
0
ENDSEC
0
SECTION
2
OBJECTS
0
DICTIONARY
5
C
100
AcDbDictionary
3
ACAD_GROUP
350
D
3
ACAD_MLINESTYLE
350
17
0
DICTIONARY
5
D
100
AcDbDictionary
0
DICTIONARY
5
1A
330
C
100
AcDbDictionary
0
DICTIONARY
5
17
100
AcDbDictionary
0
ENDSEC
0
EOF
