<?xml version="1.0" encoding="utf-8"?>
<!-- Generator: Adobe Illustrator 25.4.8, SVG Export Plug-In . SVG Version: 6.00 Build 0)  -->
<svg version="1.1" id="Layer_1" xmlns="http://www.w3.org/2000/svg" xmlns:xlink="http://www.w3.org/1999/xlink" x="0px" y="0px"
	 viewBox="0 0 62.4 62.4" style="enable-background:new 0 0 62.4 62.4;" xml:space="preserve">
<g>
	<path d="M18.1,16.7l-5.3-8.2l3.6-2.3c1.5-0.9,2.9-0.4,3.9,1.1c1,1.6,0.9,3.1-0.6,4l-1.9,1.2l1.9,3L18.1,16.7z M16.9,11.1l1.7-1.1
		c0.4-0.3,0.6-0.7,0.2-1.2l-0.5-0.7c-0.4-0.6-0.8-0.6-1.2-0.3l-1.7,1.1L16.9,11.1z"/>
	<path d="M24.1,2.9l1.2,6.2c0.2,1.3,0.7,1.7,1.8,1.5c1.1-0.2,1.4-0.8,1.1-2.1l-1.2-6.2L29,2l1.2,6c0.5,2.7-0.2,4-2.7,4.5
		s-3.7-0.4-4.2-3.1l-1.2-6L24.1,2.9z"/>
	<path d="M31.2,10.2l1.5-1.1c0.4,0.8,1.1,1.3,2,1.4c0.9,0.2,1.4-0.2,1.6-1c0.1-0.7-0.1-1.1-0.8-1.3L34.6,8c-1.7-0.6-2.4-1.7-2.1-3.3
		c0.3-1.9,1.6-2.7,3.7-2.3c1.4,0.2,2.3,0.8,2.9,1.9l-1.5,1.1c-0.4-0.7-0.9-1-1.7-1.2c-0.9-0.1-1.3,0.1-1.4,0.8
		c-0.1,0.6,0.1,1,0.8,1.3l0.9,0.3c1.8,0.7,2.5,1.6,2.2,3.2c-0.3,2-1.7,3-3.9,2.6C32.9,12.1,31.8,11.4,31.2,10.2z"/>
	<path d="M44.6,12l-2.8-1.7l-2.1,3.5l-1.7-1l5-8.4l1.7,1l-2,3.4l2.8,1.7l2-3.4l1.7,1l-5,8.4l-1.7-1L44.6,12z"/>
</g>
<g>
	<path d="M11.5,42.7c2.8-2.3,5-2,6.4-0.2c1.1,1.4,1.1,2.5,0.3,4l-1.8-0.8c0.5-0.7,0.8-1.3,0.1-2.1c-0.7-0.9-1.7-1-2.7-0.1l-2,1.6
		c-1,0.8-1.1,1.8-0.4,2.7c0.7,0.8,1.4,0.7,2.3,0.4L14,50c-1.6,0.4-2.8,0.2-3.9-1.1C8.6,47.1,8.7,45,11.5,42.7z"/>
	<path d="M19.3,55.9l0.7-2.4L17.4,52l-1.7,1.8l-1.7-1l7.3-7.1l2.2,1.3L21,56.9L19.3,55.9z M21,49.6l0.6-1.6l-0.2-0.1l-1.1,1.3
		l-1.6,1.7l1.7,1L21,49.6z"/>
	<path d="M27.2,52.9l-0.4-1.6l-0.2,0l-0.1,1.6L25.8,58L24,57.8l1.3-9.7l2.2,0.3l1.8,5.5l0.4,1.6l0.2,0l0.1-1.6l0.7-5.1l1.9,0.2
		l-1.3,9.7L29,58.5L27.2,52.9z"/>
	<path d="M33.3,53.9c-0.9-3.5,0.3-5.4,2.6-5.9c1.7-0.4,2.8,0.1,3.8,1.4l-1.5,1.3c-0.4-0.8-0.9-1.2-1.9-1c-1.1,0.3-1.6,1.1-1.2,2.4
		l0.6,2.5c0.3,1.3,1.2,1.8,2.2,1.5c1-0.3,1.2-1,1.3-1.9l1.8,0.5c-0.3,1.6-1,2.6-2.7,3.1C36,58.3,34.2,57.4,33.3,53.9z"/>
	<path d="M44.1,55.4l-5.5-8.1l5-3.4l1,1.4l-3.4,2.3l1.2,1.8l2.8-1.9l1,1.4l-2.8,1.9l1.3,1.9l3.4-2.3l1,1.4L44.1,55.4z"/>
	<path d="M51.3,49.9l-7.7-6l1.2-1.6l6.3,4.9l2-2.6l1.4,1.1L51.3,49.9z"/>
</g>
</svg>
