<?xml version="1.0" encoding="utf-8"?>
<!-- Generator: Adobe Illustrator 25.4.8, SVG Export Plug-In . SVG Version: 6.00 Build 0)  -->
<svg version="1.1" id="Layer_1" xmlns="http://www.w3.org/2000/svg" xmlns:xlink="http://www.w3.org/1999/xlink" x="0px" y="0px"
	 viewBox="0 0 48.2 48.2" style="enable-background:new 0 0 48.2 48.2;" xml:space="preserve">
<g>
	<path d="M13.1,17.9L6,11.2l2.8-2.9c1.2-1.2,2.6-1.1,4,0.2s1.5,2.7,0.4,4L11.6,14l2.7,2.6L13.1,17.9z M10.5,13l1.5-1.5
		c0.4-0.4,0.4-0.9-0.1-1.4l-0.6-0.6c-0.5-0.5-1-0.4-1.4,0L8.3,11L10.5,13z"/>
	<path d="M16.5,3.4l1.7,6.1c0.4,1.4,1,1.9,2.2,1.6c1.2-0.3,1.4-1.1,1-2.5l-1.7-6.1L21.4,2L23,7.9c0.7,2.6,0.2,3.9-2.2,4.6
		c-2.4,0.7-3.6-0.2-4.3-2.8l-1.7-5.9L16.5,3.4z"/>
	<path d="M24.1,10.1l1.4-0.8c0.4,0.9,1,1.5,1.9,1.7c1,0.2,1.6-0.1,1.9-1c0.2-0.7-0.1-1.2-0.8-1.6L27.6,8c-1.6-0.8-2.2-1.8-1.8-3.4
		c0.4-1.8,1.8-2.5,3.8-2c1.3,0.3,2.2,1,2.6,2.1l-1.4,0.8c-0.3-0.8-0.8-1.2-1.7-1.4c-1-0.2-1.5,0-1.7,0.9c-0.2,0.7,0.1,1.1,0.8,1.5
		l0.8,0.4c1.7,0.8,2.3,1.8,1.9,3.4c-0.5,1.9-1.9,2.7-4,2.2C25.6,12,24.6,11.3,24.1,10.1z"/>
	<path d="M36.9,13.6l-2.5-2.5l-3,3l-1.2-1.2l6.8-7l1.2,1.2l-2.9,2.9l2.5,2.5l2.9-2.9l1.2,1.2l-6.8,7l-1.2-1.2L36.9,13.6z"/>
</g>
<g>
	<path d="M3.2,25.4l1.2-0.2l0.1,1l5.9-0.9l-0.1-1l1.2-0.2l0.5,3.5l-1.2,0.2l-0.1-1l-5.9,0.9l0.1,1l-1.2,0.2L3.2,25.4z"/>
	<path d="M6.5,35.6l1.7-1.5l-1.3-2.4l-2.2,0.5L4,30.9l8.5-1.8l0.9,1.7l-6.2,6.1L6.5,35.6z M10.8,31.5l1.1-0.9l-0.1-0.1l-1.3,0.4
		l-2.3,0.5l0.9,1.7L10.8,31.5z"/>
	<path d="M9.4,37.5l1.4-0.1c0,0.8,0.2,1.5,0.9,2c0.7,0.6,1.3,0.5,1.8-0.1c0.4-0.5,0.4-1-0.1-1.5l-0.5-0.6c-1-1.2-1.1-2.2-0.2-3.3
		c1-1.2,2.3-1.3,3.7-0.1c0.9,0.8,1.3,1.6,1.3,2.6l-1.3,0.1c0-0.7-0.2-1.2-0.8-1.7c-0.7-0.5-1.2-0.5-1.6,0c-0.4,0.5-0.4,0.9,0.1,1.5
		l0.5,0.6c1,1.3,1.1,2.2,0.2,3.3c-1.1,1.3-2.5,1.4-3.9,0.3C9.8,39.6,9.4,38.6,9.4,37.5z"/>
	<path d="M13.8,44.5l6.7-8.9l1.1,0.4L15,44.9L13.8,44.5z"/>
	<path d="M26.7,40.1l0.1-1.4l-0.2,0l-0.5,1.4l-1.4,3.3l-1.6-3.2l-0.6-1.3l-0.2,0l0.1,1.4l0.2,4.8l-1.4,0L21,36.7l1.6-0.1l1.3,2.7
		l0.7,1.7l0.1,0l0.6-1.7l1.1-2.8l1.6-0.1l0.3,8.4l-1.4,0L26.7,40.1z"/>
	<path d="M35.7,41.6l-1.6-1.6l-2.4,1.3l0.5,2.2L31,44.1l-1.8-8.5l1.7-0.9l6.1,6.2L35.7,41.6z M31.6,37.3l-0.9-1l-0.1,0.1l0.4,1.3
		l0.5,2.3l1.7-0.9L31.6,37.3z"/>
	<path d="M35.3,36.9c-2.4-1.9-2.6-3.8-1.4-5.3c0.9-1.2,1.9-1.4,3.2-1L36.9,32c-0.9-0.4-1.4-0.3-2,0.4c-0.7,0.8-0.5,1.8,0.5,2.5
		l1.6,1.3c1,0.8,1.9,0.8,2.6-0.1c0.5-0.7,0.5-1.3-0.1-2.1l1.3-0.5c0.6,1.2,0.7,2.3-0.3,3.4C39.5,38.5,37.7,38.8,35.3,36.9z"/>
	<path d="M41.2,26.9l-0.7,3l3.5,0.9l-0.4,1.5l-8.1-2l0.4-1.5l3.4,0.9l0.7-3l-3.4-0.9l0.4-1.5l8.1,2l-0.4,1.5L41.2,26.9z"/>
</g>
</svg>
