<?xml version="1.0" encoding="utf-8"?>
<!-- Generator: Adobe Illustrator 25.4.8, SVG Export Plug-In . SVG Version: 6.00 Build 0)  -->
<svg version="1.1" id="Layer_1" xmlns="http://www.w3.org/2000/svg" xmlns:xlink="http://www.w3.org/1999/xlink" x="0px" y="0px"
	 viewBox="0 0 48.2 48.2" style="enable-background:new 0 0 48.2 48.2;" xml:space="preserve">
<g>
	<path d="M13.1,17.9L6,11.2l2.8-2.9c1.2-1.2,2.6-1.1,4,0.2s1.5,2.7,0.4,4L11.6,14l2.7,2.6L13.1,17.9z M10.5,13l1.5-1.5
		c0.4-0.4,0.4-0.9-0.1-1.4l-0.6-0.6c-0.5-0.5-1-0.4-1.4,0L8.3,11L10.5,13z"/>
	<path d="M16.5,3.4l1.7,6.1c0.4,1.4,1,1.9,2.2,1.6c1.2-0.3,1.4-1.1,1-2.5l-1.7-6.1L21.4,2L23,7.9c0.7,2.6,0.2,3.9-2.2,4.6
		c-2.4,0.7-3.6-0.2-4.3-2.8l-1.7-5.9L16.5,3.4z"/>
	<path d="M24.1,10.1l1.4-0.8c0.4,0.9,1,1.5,1.9,1.7c1,0.2,1.6-0.1,1.9-1c0.2-0.7-0.1-1.2-0.8-1.6L27.6,8c-1.6-0.8-2.2-1.8-1.8-3.4
		c0.4-1.8,1.8-2.5,3.8-2c1.3,0.3,2.2,1,2.6,2.1l-1.4,0.8c-0.3-0.8-0.8-1.2-1.7-1.4c-1-0.2-1.5,0-1.7,0.9c-0.2,0.7,0.1,1.1,0.8,1.5
		l0.8,0.4c1.7,0.8,2.3,1.8,1.9,3.4c-0.5,1.9-1.9,2.7-4,2.2C25.6,12,24.6,11.3,24.1,10.1z"/>
	<path d="M36.9,13.6l-2.5-2.5l-3,3l-1.2-1.2l6.8-7l1.2,1.2l-2.9,2.9l2.5,2.5l2.9-2.9l1.2,1.2l-6.8,7l-1.2-1.2L36.9,13.6z"/>
</g>
<g>
	<path d="M13,25.1l1.3,3.1c0.9,2.2,0.1,4-3.1,5.3c-3.2,1.3-5,0.6-6-1.6L4,28.9L13,25.1z M6.7,31.4c0.5,1.1,1.4,1.4,2.8,0.9l2.1-0.9
		c1.4-0.6,1.8-1.5,1.3-2.6l-0.6-1.5l-6.2,2.6L6.7,31.4z"/>
	<path d="M9.1,38l0.9-1l0.9,0.8l4.6-5.2l-0.9-0.8l0.9-1l3.1,2.7l-0.9,1l-0.9-0.8l-4.6,5.2l0.9,0.8l-0.9,1L9.1,38z"/>
	<path d="M17,43.3l-1.7-0.5l2.7-9.4l3.9,1.1c1.6,0.5,2.2,1.8,1.7,3.6c-0.4,1.4-1.2,2.2-2.4,2.2l0.6,4.3L20,44.1L19.6,40l-1.5-0.4
		L17,43.3z M20.5,38.8c0.6,0.2,1,0,1.2-0.7l0.2-0.8c0.2-0.7-0.1-1.1-0.6-1.3l-2-0.6l-0.8,2.8L20.5,38.8z"/>
	<path d="M25.9,44.6l-2.2-9.5l5.7-1.3l0.3,1.5l-4,0.9l0.6,2.5l3.5-0.8l0.3,1.4l-3.5,0.8l0.6,2.6l4-0.9l0.3,1.5L25.9,44.6z"/>
	<path d="M31.9,38c-2.4-2.7-2.3-4.8-0.6-6.4c1.3-1.1,2.5-1.2,3.9-0.5l-0.6,1.6c-0.9-0.6-1.6-0.6-2.3,0.1c-0.9,0.8-0.9,1.9,0.1,3
		l1.6,1.8c1,1.1,2.1,1.3,3,0.4c0.7-0.7,0.8-1.4,0.3-2.4l1.6-0.3c0.5,1.5,0.3,2.7-1,3.9C36.3,40.7,34.3,40.7,31.9,38z"/>
	<path d="M35.8,27.5l7.7,2.9l-0.6,1.6l-7.7-2.9l-0.9,2.3l-1.4-0.5l2.3-6.2l1.4,0.5L35.8,27.5z"/>
</g>
</svg>
