<?xml version="1.0" encoding="utf-8"?>
<!-- Generator: Fusion 360, Shaper Origin Export Add-In, Version 1.6.9  -->
<svg xmlns="http://www.w3.org/2000/svg" xmlns:xlink="http://www.w3.org/1999/xlink" xmlns:shaper="http://www.shapertools.com/namespaces/shaper" shaper:fusionaddin="version:1.6.9" width="4.31922cm" height="6.715cm" version="1.1" x="0cm" y="0cm" viewBox="0 0 4.31922 6.715" enable-background="new 0 0 4.31922 6.715" xml:space="preserve"><g id="Body_Lettering 1"><path d="M2.413,-5.426 L1.605,-5.426 A0.2,0.2 90 0,1 1.405,-5.626 L1.405,-8.725 A0.2,0.2 180 0,1 1.605,-8.925 L2.413,-8.925 A0.6,0.6 90 0,0 3.013,-9.525 L3.013,-10.333 A0.2,0.2 180 0,1 3.213,-10.533 L5.72422,-10.533 5.72422,-3.818 3.213,-3.818 A0.2,0.2 90 0,1 3.013,-4.018 L3.013,-4.826 A0.6,0.6 0 0,0 2.413,-5.426z" transform="matrix(1,0,0,-1,-1.405,-3.818)" fill="rgb(0,0,0)" shaper:cutDepth="0.0014" stroke-linecap="round" stroke-linejoin="round" /><path d="M4.3440576,-6.7249172 L4.2605075,-6.7249172 4.2605075,-6.8941056 4.2043864,-6.8941056 4.2043864,-6.4938305 4.363121,-6.4938305 4.363121,-6.4938305 4.3799281,-6.4947246 4.3956863,-6.4974069 4.4103957,-6.5018773 4.4240563,-6.5081359 4.4240563,-6.5081359 4.4364531,-6.5160365 4.4473713,-6.525433 4.4568108,-6.5363254 4.4647716,-6.5487136 4.4647716,-6.5487136 4.4710904,-6.562357 4.4756038,-6.5770148 4.4783118,-6.5926871 4.4792145,-6.6093739 4.4792145,-6.6093739 4.4783032,-6.6260606 4.4755694,-6.6417329 4.471013,-6.6563907 4.464634,-6.6700341 4.464634,-6.6700341 4.456613,-6.6824223 4.4471306,-6.6933147 4.4361866,-6.7027112 4.4237812,-6.7106118 4.4237812,-6.7106118 4.4140389,-6.7153073 4.4037683,-6.7190718 4.4959958,-6.8941056 4.4294208,-6.8941056 4.3440576,-6.7249172z M4.2605075,-6.5472005 L4.2605075,-6.6715472 4.3653218,-6.6715472 4.3653218,-6.6715472 4.3730762,-6.6710657 4.3803837,-6.6696214 4.3872441,-6.6672143 4.3936574,-6.6638443 4.3936574,-6.6638443 4.3994947,-6.6595888 4.4046271,-6.6545252 4.4090546,-6.6486534 4.4127771,-6.6419736 4.4127771,-6.6419736 4.4157258,-6.6346232 4.4178321,-6.6267397 4.4190959,-6.6183233 4.4195171,-6.6093739 4.4195171,-6.6093739 4.4190959,-6.6004244 4.4178321,-6.592008 4.4157258,-6.5841245 4.4127771,-6.5767741 4.4127771,-6.5767741 4.4090632,-6.5700943 4.4046615,-6.5642225 4.3995721,-6.5591589 4.393795,-6.5549034 4.393795,-6.5549034 4.3874246,-6.5515334 4.3805556,-6.5491262 4.373188,-6.547682 4.3653218,-6.5472005 4.2605075,-6.5472005z" transform="matrix(1,0,0,-1,-1.405,-3.818)" fill="rgb(185,185,185)" fill-rule="nonzero" shaper:cutDepth="0.0012" stroke-linecap="round" stroke-linejoin="round" /><path d="M4.6918693,-6.8982322 L4.6918693,-6.8982322 4.6776155,-6.8978883 4.66374,-6.8968567 4.6502427,-6.8951373 4.6371238,-6.8927301 4.6371238,-6.8927301 4.6244088,-6.8896352 4.6121238,-6.8858525 4.6002685,-6.8813821 4.5888431,-6.8762239 4.5888431,-6.8762239 4.5778132,-6.870378 4.5671444,-6.8638443 4.5568366,-6.8566228 4.5468899,-6.8487136 4.581828,-6.8057975 4.581828,-6.8057975 4.5935371,-6.8150823 4.6058308,-6.823129 4.618709,-6.8299378 4.6321719,-6.8355087 4.6321719,-6.8355087 4.6462193,-6.8398416 4.6608514,-6.8429365 4.676068,-6.8447934 4.6918693,-6.8454124 4.6918693,-6.8454124 4.7024307,-6.8451609 4.7123817,-6.8444066 4.7217223,-6.8431492 4.7304525,-6.841389 4.7385723,-6.8391259 4.7460818,-6.8363598 4.7529809,-6.8330908 4.7592695,-6.8293188 4.7592695,-6.8293188 4.7648791,-6.825087 4.7697407,-6.8204382 4.7738543,-6.8153724 4.7772201,-6.8098897 4.7798378,-6.80399 4.7817077,-6.7976734 4.7828296,-6.7909398 4.7832036,-6.7837892 4.7832036,-6.7835142 4.7832036,-6.7835142 4.7825244,-6.7736019 4.7804869,-6.7647728 4.7770911,-6.7570269 4.772337,-6.7503643 4.772337,-6.7503643 4.7665082,-6.7446387 4.7598886,-6.739704 4.752478,-6.7355603 4.7442765,-6.7322074 4.7442765,-6.7322074 4.7350519,-6.7293103 4.7245722,-6.7265334 4.7128373,-6.723877 4.6998473,-6.7213409 4.6998473,-6.7213409 4.6980591,-6.7210657 4.6980591,-6.7210657 4.696271,-6.7207907 4.6921444,-6.7199653 4.6921444,-6.7199653 4.6729989,-6.7164148 4.6557276,-6.7126407 4.6403304,-6.7086431 4.6268074,-6.704422 4.6268074,-6.704422 4.6146771,-6.6991951 4.603458,-6.6921799 4.5931502,-6.6833766 4.5837537,-6.6727851 4.5837537,-6.6727851 4.5795627,-6.6667393 4.5759305,-6.6600874 4.5728571,-6.6528294 4.5703424,-6.6449653 4.5683866,-6.6364952 4.5669896,-6.6274189 4.5661514,-6.6177366 4.565872,-6.6074481 4.565872,-6.607173 4.565872,-6.607173 4.5661321,-6.5980581 4.5669123,-6.5892827 4.5682126,-6.5808469 4.570033,-6.5727508 4.5723735,-6.5649941 4.5752341,-6.5575771 4.5786149,-6.5504996 4.5825158,-6.5437618 4.5825158,-6.5437618 4.5869153,-6.5373892 4.5917919,-6.5314079 4.5971457,-6.5258177 4.6029766,-6.5206187 4.6092846,-6.5158108 4.6160697,-6.5113941 4.623332,-6.5073686 4.6310715,-6.5037342 4.6310715,-6.5037342 4.6478356,-6.4977164 4.6662159,-6.4934179 4.6862125,-6.4908388 4.7078253,-6.4899791 4.7078253,-6.4899791 4.7291114,-6.4911483 4.7500536,-6.4946558 4.7500536,-6.4946558 4.7706863,-6.5004674 4.7910439,-6.5085486 4.7910439,-6.5085486 4.801111,-6.5134574 4.8110921,-6.5189681 4.8209872,-6.5250805 4.8307963,-6.5317948 4.7988844,-6.5763615 4.7988844,-6.5763615 4.7874762,-6.5684952 4.7760853,-6.5616778 4.7647115,-6.5559093 4.7533549,-6.5511895 4.7533549,-6.5511895 4.7419983,-6.5475186 4.7306244,-6.5448966 4.7192335,-6.5433233 4.7078253,-6.5427989 4.7078253,-6.5427989 4.6978635,-6.5430547 4.6884735,-6.5438219 4.6796551,-6.5451007 4.6714085,-6.5468911 4.6637335,-6.5491929 4.6566303,-6.5520063 4.6500987,-6.5553311 4.6441389,-6.5591675 4.6441389,-6.5591675 4.6388195,-6.5634725 4.6342094,-6.5682029 4.6303085,-6.573359 4.6271169,-6.5789406 4.6246345,-6.5849477 4.6228614,-6.5913804 4.6217975,-6.5982386 4.6214429,-6.6055224 4.6214429,-6.6057975 4.6214429,-6.6057975 4.6221736,-6.6155637 4.6243658,-6.6242294 4.6280195,-6.6317948 4.6331347,-6.6382597 4.6331347,-6.6382597 4.6393418,-6.6437875 4.6462709,-6.6485417 4.6539223,-6.6525221 4.6622957,-6.6557287 4.6622957,-6.6557287 4.6718813,-6.6585743 4.6831692,-6.6614715 4.6961592,-6.6644203 4.7108514,-6.6674206 4.7108514,-6.6674206 4.7129147,-6.6678333 4.7129147,-6.6678333 4.7149779,-6.6682459 4.7149779,-6.6682459 4.7180041,-6.6687961 4.7180041,-6.6687961 4.7210302,-6.6693464 4.7210302,-6.6693464 4.7384391,-6.6732322 4.7543521,-6.6774619 4.7687692,-6.6820355 4.7816905,-6.6869529 4.7816905,-6.6869529 4.7933652,-6.6928247 4.8040426,-6.7002611 4.8137228,-6.7092621 4.8224058,-6.7198278 4.8224058,-6.7198278 4.8262422,-6.7257618 4.829567,-6.732216 4.8323804,-6.7391903 4.8346822,-6.7466847 4.8364726,-6.7546992 4.8377514,-6.7632339 4.8385186,-6.7722887 4.8387744,-6.7818635 4.8387744,-6.7824137 4.8387744,-6.7824137 4.8385036,-6.7913954 4.8376912,-6.8000461 4.8363372,-6.8083659 4.8344415,-6.8163546 4.8320043,-6.8240124 4.8290254,-6.8313391 4.825505,-6.8383349 4.8214429,-6.8449997 4.8214429,-6.8449997 4.8168672,-6.8513056 4.8118057,-6.8572246 4.8062585,-6.8627568 4.8002256,-6.8679021 4.7937069,-6.8726605 4.7867025,-6.877032 4.7792124,-6.8810167 4.7712366,-6.8846146 4.7712366,-6.8846146 4.7628051,-6.8878062 4.753948,-6.8905723 4.7446655,-6.8929128 4.7349573,-6.8948278 4.7248236,-6.8963172 4.7142644,-6.8973811 4.7032796,-6.8980194 4.6918693,-6.8982322z" transform="matrix(1,0,0,-1,-1.405,-3.818)" fill="rgb(185,185,185)" fill-rule="nonzero" shaper:cutDepth="0.0012" stroke-linecap="round" stroke-linejoin="round" /><path d="M3.9867798,-6.8982322 L3.9867798,-6.8982322 3.9765516,-6.8979442 3.9666371,-6.8970802 3.9570365,-6.8956402 3.9477496,-6.8936242 3.9387765,-6.8910322 3.9301172,-6.8878642 3.9217717,-6.8841203 3.9137399,-6.8798003 3.9137399,-6.8798003 3.9060865,-6.8749516 3.8988758,-6.8696215 3.8921078,-6.8638099 3.8857826,-6.8575169 3.8799001,-6.8507425 3.8744604,-6.8434867 3.8694634,-6.8357494 3.8649091,-6.8275306 3.8649091,-6.8275306 3.8608471,-6.8189036 3.8573266,-6.8099412 3.8543477,-6.8006436 3.8519105,-6.7910107 3.8500149,-6.7810425 3.8486609,-6.7707391 3.8478484,-6.7601003 3.8475776,-6.7491263 3.8475776,-6.6393601 3.8475776,-6.6393601 3.8478484,-6.6283861 3.8486609,-6.6177473 3.8500149,-6.6074438 3.8519105,-6.5974756 3.8543477,-6.5878427 3.8573266,-6.5785451 3.8608471,-6.5695828 3.8649091,-6.5609557 3.8649091,-6.5609557 3.8694634,-6.5527348 3.8744604,-6.5449911 3.8799001,-6.5377245 3.8857826,-6.5309351 3.8921078,-6.5246227 3.8988758,-6.5187876 3.9060865,-6.5134295 3.9137399,-6.5085486 3.9137399,-6.5085486 3.9217717,-6.5041963 3.9301172,-6.5004244 3.9387765,-6.4972328 3.9477496,-6.4946215 3.9570365,-6.4925904 3.9666371,-6.4911397 3.9765516,-6.4902692 3.9867798,-6.4899791 3.9867798,-6.4899791 4.0036299,-6.490899 4.0197922,-6.4936586 4.0352668,-6.498258 4.0500536,-6.5046971 4.0500536,-6.5046971 4.0639033,-6.5128212 4.0765666,-6.5224756 4.0880436,-6.5336603 4.0983342,-6.5463752 4.0983342,-6.5463752 4.1072492,-6.5603883 4.1145997,-6.5754674 4.1203854,-6.5916125 4.1246065,-6.6088237 4.06711,-6.6088237 4.06711,-6.6088237 4.064058,-6.5997195 4.0601292,-6.5911139 4.0553235,-6.5830069 4.0496409,-6.5753986 4.0496409,-6.5753986 4.0432534,-6.5684609 4.0363328,-6.5623656 4.0288792,-6.5571129 4.0208926,-6.5527026 4.0208926,-6.5527026 4.0125708,-6.5492122 4.0041113,-6.5467191 3.9955144,-6.5452232 3.9867798,-6.5447246 3.9867798,-6.5447246 3.974916,-6.545464 3.9638087,-6.547682 3.953458,-6.5513787 3.9438637,-6.556554 3.9438637,-6.556554 3.9351636,-6.563062 3.9274951,-6.5707562 3.9208582,-6.5796369 3.915253,-6.589704 3.915253,-6.589704 3.9107998,-6.6008027 3.9076189,-6.6127783 3.9057104,-6.6256307 3.9050742,-6.6393601 3.9050742,-6.7491263 3.9050742,-6.7491263 3.9057104,-6.7627439 3.9076189,-6.7755362 3.9107998,-6.7875032 3.915253,-6.7986449 3.915253,-6.7986449 3.9208582,-6.8087635 3.9274951,-6.8176614 3.9351636,-6.8253384 3.9438637,-6.8317948 3.9438637,-6.8317948 3.953458,-6.83691 3.9638087,-6.8405637 3.974916,-6.8427559 3.9867798,-6.8434866 3.9867798,-6.8434866 3.9956261,-6.8430224 4.0042833,-6.8416297 4.0127513,-6.8393085 4.0210302,-6.8360589 4.0210302,-6.8360589 4.0289566,-6.8318979 4.0363672,-6.8268429 4.043262,-6.8208938 4.0496409,-6.8140506 4.0496409,-6.8140506 4.0553235,-6.8064165 4.0601292,-6.7980946 4.064058,-6.789085 4.06711,-6.7793876 4.1246065,-6.7793876 4.1246065,-6.7793876 4.1203768,-6.7965988 4.1145653,-6.8127439 4.1071719,-6.827823 4.0981966,-6.8418361 4.0981966,-6.8418361 4.0878459,-6.854551 4.0763259,-6.8657356 4.0636368,-6.87539 4.0497785,-6.8835142 4.0497785,-6.8835142 4.0350089,-6.8899533 4.0195859,-6.8945527 4.0035095,-6.8973123 3.9867798,-6.8982322z" transform="matrix(1,0,0,-1,-1.405,-3.818)" fill="rgb(185,185,185)" fill-rule="nonzero" shaper:cutDepth="0.0012" stroke-linecap="round" stroke-linejoin="round" /><path d="M5.0068624,-6.8941056 L4.9507414,-6.8941056 4.9507414,-6.5551785 4.893795,-6.5901166 4.893795,-6.5320699 4.9507414,-6.4941056 5.0068624,-6.4941056 5.0068624,-6.8941056z" transform="matrix(1,0,0,-1,-1.405,-3.818)" fill="rgb(185,185,185)" fill-rule="nonzero" shaper:cutDepth="0.0012" stroke-linecap="round" stroke-linejoin="round" /><path d="M3.6668255,-7.2766024 A0.95,0.95 145 0,1 3.6668255,-8.3663976 L3.7487407,-8.30904 A0.85,0.85 215 0,0 3.7487407,-7.33396 L3.6668255,-7.2766024z" transform="matrix(1,0,0,-1,-1.405,-3.818)" fill="rgb(185,185,185)" fill-rule="nonzero" shaper:cutDepth="0.0012" stroke-linecap="round" stroke-linejoin="round" /><path d="M5.1412991,-7.33396 A0.85,0.85 35 0,0 5.1412991,-8.30904 L5.2232143,-8.3663976 A0.95,0.95 325 0,1 5.2232143,-7.2766024 L5.1412991,-7.33396z" transform="matrix(1,0,0,-1,-1.405,-3.818)" fill="rgb(185,185,185)" fill-rule="nonzero" shaper:cutDepth="0.0012" stroke-linecap="round" stroke-linejoin="round" /><path d="M3.88972,-5.4865 L3.88972,-6.3465 4.96472,-6.3465 4.96472,-5.4865 3.88972,-5.4865z" transform="matrix(1,0,0,-1,-1.405,-3.818)" fill="rgb(255,255,255)" stroke="rgb(0,0,0)" stroke-width="0.0010cm" stroke-linecap="round" stroke-linejoin="round" shaper:cutDepth="0.0014" /><path d="M3.7950199,-7.8215 a0.65,0.65 0 1,1 1.3,0 a0.65,0.65 0 1,1 -1.3,0z" transform="matrix(1,0,0,-1,-1.405,-3.818)" fill="rgb(255,255,255)" stroke="rgb(0,0,0)" stroke-width="0.0010cm" stroke-linecap="round" stroke-linejoin="round" shaper:cutDepth="0.0014" /></g></svg>